# xmcd
#
# Track frame offsets: 
#        150
#        19230
#        37130
#        57812
#        85487
#        98447
#        127095
#        143415
#        168875
#        188030
#
# Disc length: 2815 seconds
#
# Revision: 0
# Processed by: cddbd v1.5.1PL2 Copyright (c) Steve Scherf et al.
# Submitted via: ExactAudioCopy v0.95b4
#
DISCID=7d0afd0a
DTITLE=BlueSpirit - Direct Cut Live
DYEAR=1997
DGENRE=Blues
TTITLE0=Diggin on James Brown
TTITLE1=Cold Shot
TTITLE2=Move Over
TTITLE3=Foxy Lady
TTITLE4=I don't worry about a thing
TTITLE5=Let the good times roll - Old Mr. Heffer
TTITLE6=Hug and squeeze you
TTITLE7=Politician
TTITLE8=Stray cat strut
TTITLE9=Jesus just left Chicago
EXTD=
EXTT0=
EXTT1=
EXTT2=
EXTT3=
EXTT4=
EXTT5=
EXTT6=
EXTT7=
EXTT8=
EXTT9=
PLAYORDER=
